<svg xmlns="http://www.w3.org/2000/svg" width="420" height="300" viewBox="0 0 420 300">
  <defs>
    <linearGradient id="bg" x1="0" x2="1" y1="0" y2="1">
      <stop offset="0" stop-color="#24113d"/>
      <stop offset="1" stop-color="#7c2d6d"/>
    </linearGradient>
    <radialGradient id="glow" cx=".76" cy=".18" r=".75">
      <stop offset="0" stop-color="#d8b4fe" stop-opacity=".36"/>
      <stop offset=".55" stop-color="#d8b4fe" stop-opacity=".08"/>
      <stop offset="1" stop-color="#000000" stop-opacity="0"/>
    </radialGradient>
  </defs>
  <rect width="420" height="300" rx="42" fill="url(#bg)"/>
  <rect width="420" height="300" rx="42" fill="url(#glow)"/>
  <circle cx="60" cy="245" r="105" fill="#ffffff" opacity=".05"/>
  <g transform="translate(-470 -55) scale(.52)"><g transform="translate(580 65)">
  <path d="M206 32c44 91 81 155 115 225 19 42-8 84-59 92-65 10-130-18-168-64" fill="#f0b9a4" opacity=".9"/>
  <path d="M85 128c65-42 120-42 165-1" fill="none" stroke="#d8b4fe" stroke-width="14" stroke-linecap="round"/>
  <path d="M102 177c49-29 95-28 137 5" fill="none" stroke="#d8b4fe" stroke-width="14" stroke-linecap="round" opacity=".76"/>
  <path d="M122 225c35-12 70-8 102 11" fill="none" stroke="#fbbf24" stroke-width="12" stroke-linecap="round" opacity=".82"/>
  <circle cx="145" cy="134" r="36" fill="#fbbf24" opacity=".28"/>
  <circle cx="210" cy="138" r="35" fill="#fbbf24" opacity=".22"/>
</g></g>
  <text x="30" y="42" font-family="Inter, Arial, sans-serif" font-size="15" font-weight="800" letter-spacing="8" fill="#ffffff" opacity=".70">NOSE</text>
  <text x="30" y="265" font-family="Inter, Arial, sans-serif" font-size="20" font-weight="800" fill="#ffffff" opacity=".94">Nose</text>
</svg>