<svg xmlns="http://www.w3.org/2000/svg" width="420" height="300" viewBox="0 0 420 300">
  <defs>
    <linearGradient id="bg" x1="0" x2="1" y1="0" y2="1">
      <stop offset="0" stop-color="#24113d"/>
      <stop offset="1" stop-color="#7c2d6d"/>
    </linearGradient>
    <radialGradient id="glow" cx=".76" cy=".18" r=".75">
      <stop offset="0" stop-color="#d8b4fe" stop-opacity=".36"/>
      <stop offset=".55" stop-color="#d8b4fe" stop-opacity=".08"/>
      <stop offset="1" stop-color="#000000" stop-opacity="0"/>
    </radialGradient>
  </defs>
  <rect width="420" height="300" rx="42" fill="url(#bg)"/>
  <rect width="420" height="300" rx="42" fill="url(#glow)"/>
  <circle cx="60" cy="245" r="105" fill="#ffffff" opacity=".05"/>
  <g transform="translate(-470 -55) scale(.52)"><g transform="translate(580 62)">
  <path d="M205 22c45 92 81 156 116 228 20 42-7 83-58 91-65 11-133-18-171-64" fill="#f0b9a4" opacity=".92"/>
  <path d="M110 96c-25-28-25-55 0-82" fill="none" stroke="#d8b4fe" stroke-width="9" stroke-linecap="round" opacity=".85"/>
  <path d="M82 139c-36-42-36-83 0-124" fill="none" stroke="#d8b4fe" stroke-width="9" stroke-linecap="round" opacity=".62"/>
  <path d="M139 130c30 26 71 26 102 0" fill="none" stroke="#fbbf24" stroke-width="10" stroke-linecap="round"/>
  <path d="M144 187c34 13 70 14 105 2" fill="none" stroke="#ef4444" stroke-width="9" stroke-linecap="round" opacity=".68"/>
  <path d="M70 80l88 88" stroke="#fff" stroke-width="8" stroke-linecap="round" opacity=".78"/>
</g></g>
  <text x="30" y="42" font-family="Inter, Arial, sans-serif" font-size="15" font-weight="800" letter-spacing="8" fill="#ffffff" opacity=".70">NOSE</text>
  <text x="30" y="265" font-family="Inter, Arial, sans-serif" font-size="20" font-weight="800" fill="#ffffff" opacity=".94">Nose</text>
</svg>