<svg xmlns="http://www.w3.org/2000/svg" width="420" height="300" viewBox="0 0 420 300">
  <defs>
    <linearGradient id="bg" x1="0" x2="1" y1="0" y2="1">
      <stop offset="0" stop-color="#2b0d16"/>
      <stop offset="1" stop-color="#7f1d1d"/>
    </linearGradient>
    <radialGradient id="glow" cx=".76" cy=".18" r=".75">
      <stop offset="0" stop-color="#fb7185" stop-opacity=".36"/>
      <stop offset=".55" stop-color="#fb7185" stop-opacity=".08"/>
      <stop offset="1" stop-color="#000000" stop-opacity="0"/>
    </radialGradient>
  </defs>
  <rect width="420" height="300" rx="42" fill="url(#bg)"/>
  <rect width="420" height="300" rx="42" fill="url(#glow)"/>
  <circle cx="60" cy="245" r="105" fill="#ffffff" opacity=".05"/>
  <g transform="translate(-470 -55) scale(.52)"><g transform="translate(560 70)">
  <path d="M180 35v94c0 54-43 70-55 117" fill="none" stroke="#ffd2c4" stroke-width="25" stroke-linecap="round"/>
  <path d="M250 35v94c0 54 43 70 55 117" fill="none" stroke="#ffd2c4" stroke-width="25" stroke-linecap="round"/>
  <path d="M166 165c37-20 77-20 116 0" fill="none" stroke="#7f1d1d" stroke-width="14" stroke-linecap="round"/>
  <path d="M172 221c33 18 71 18 104 0" fill="none" stroke="#fb7185" stroke-width="12" stroke-linecap="round"/>
  <path d="M94 88c-50 42-77 96-77 160" fill="none" stroke="#fb7185" stroke-width="10" stroke-linecap="round" opacity=".75"/>
  <path d="M336 88c50 42 77 96 77 160" fill="none" stroke="#fb7185" stroke-width="10" stroke-linecap="round" opacity=".75"/>
</g></g>
  <text x="30" y="42" font-family="Inter, Arial, sans-serif" font-size="15" font-weight="800" letter-spacing="8" fill="#ffffff" opacity=".70">THROAT</text>
  <text x="30" y="265" font-family="Inter, Arial, sans-serif" font-size="20" font-weight="800" fill="#ffffff" opacity=".94">Voice</text>
</svg>