<svg xmlns="http://www.w3.org/2000/svg" width="1200" height="720" viewBox="0 0 1200 720">
  <defs>
    <linearGradient id="bg" x1="0" x2="1" y1="0" y2="1">
      <stop offset="0" stop-color="#24113d"/>
      <stop offset=".55" stop-color="#7c2d6d"/>
      <stop offset="1" stop-color="#020617"/>
    </linearGradient>
    <radialGradient id="glow" cx=".72" cy=".25" r=".72">
      <stop offset="0" stop-color="#d8b4fe" stop-opacity=".32"/>
      <stop offset=".48" stop-color="#d8b4fe" stop-opacity=".08"/>
      <stop offset="1" stop-color="#000000" stop-opacity="0"/>
    </radialGradient>
    <filter id="soft"><feGaussianBlur stdDeviation="22"/></filter>
  </defs>
  <rect width="1200" height="720" fill="url(#bg)"/>
  <rect width="1200" height="720" fill="url(#glow)"/>
  <circle cx="1040" cy="100" r="210" fill="#ffffff" opacity=".06" filter="url(#soft)"/>
  <circle cx="120" cy="655" r="260" fill="#ffffff" opacity=".035" filter="url(#soft)"/>
  <g transform="translate(590 60)">
  <path d="M200 20c46 93 83 158 118 231 20 43-6 83-57 91-65 11-133-18-171-64" fill="#f0b9a4" opacity=".94"/>
  <path d="M196 91c26 72 43 118 75 181" fill="none" stroke="#7f1d1d" stroke-width="11" stroke-linecap="round" opacity=".72"/>
  <path d="M127 235c46 21 100 30 150 11" fill="none" stroke="#fff3e6" stroke-width="8" stroke-linecap="round" opacity=".72"/>
  <path d="M166 166c-29 20-44 55-45 100" fill="none" stroke="#d8b4fe" stroke-width="12" stroke-linecap="round"/>
  <path d="M225 170c25 18 41 49 45 86" fill="none" stroke="#f97316" stroke-width="10" stroke-linecap="round" opacity=".82"/>
</g>
  <text x="72" y="90" font-family="Inter, Arial, sans-serif" font-size="18" font-weight="900" letter-spacing="10" fill="#ffffff" opacity=".58">NOSE</text>
  <text font-family="Inter, Arial, sans-serif" font-size="58" font-weight="850" fill="#ffffff" letter-spacing="-1">
    <tspan x="72" y="318">Nasal blockage</tspan>
  </text>
  <text x="72" y="612" font-family="Inter, Arial, sans-serif" font-size="22" font-weight="700" fill="#ffffff" opacity=".70">Nose patient education</text>
  <text x="72" y="654" font-family="Inter, Arial, sans-serif" font-size="16" font-weight="700" letter-spacing="5" fill="#ffffff" opacity=".42">DR. ANUJ DEVKOTA | ENT HEAD AND NECK SURGERY</text>
</svg>